Coordinates
version=1
nRows=20
nColumns=63
inDegrees=yes

Units are S.I. units (second, meters, Newtons, ...)
If the header above contains a line with 'inDegrees', this indicates whether rotational values are in degrees (yes) or radians (no).

endheader
time	pelvis_tilt	pelvis_list	pelvis_rotation	pelvis_tx	pelvis_ty	pelvis_tz	hip_flexion_r	hip_adduction_r	hip_rotation_r	knee_angle_r	knee_angle_r_beta	ankle_angle_r	subtalar_angle_r	mtp_angle_r	hip_flexion_l	hip_adduction_l	hip_rotation_l	knee_angle_l	knee_angle_l_beta	ankle_angle_l	subtalar_angle_l	mtp_angle_l	L5_S1_Flex_Ext	L5_S1_Lat_Bending	L5_S1_axial_rotation	L4_L5_Flex_Ext	L4_L5_Lat_Bending	L4_L5_axial_rotation	L3_L4_Flex_Ext	L3_L4_Lat_Bending	L3_L4_axial_rotation	L2_L3_Flex_Ext	L2_L3_Lat_Bending	L2_L3_axial_rotation	L1_L2_Flex_Ext	L1_L2_Lat_Bending	L1_L2_axial_rotation	L1_T12_Flex_Ext	L1_T12_Lat_Bending	L1_T12_axial_rotation	Abs_r3	Abs_r2	Abs_r1	Abs_t1	Abs_t2	neck_flexion	neck_bending	neck_rotation	arm_flex_r	arm_add_r	arm_rot_r	elbow_flex_r	pro_sup_r	wrist_flex_r	wrist_dev_r	arm_flex_l	arm_add_l	arm_rot_l	elbow_flex_l	pro_sup_l	wrist_flex_l	wrist_dev_l
1.727273	-0.362263	7.885639	97.402767	0.145927	0.880779	0.516413	-4.827101	1.681478	-9.182771	9.940787	0.173499	31.992273	0.447010	0.000000	-3.629146	-2.096854	6.253074	12.344829	0.215458	32.379936	7.188226	0.000000	0.194230	0.378621	0.702214	0.360705	0.503567	0.746102	0.319101	0.920580	0.746102	0.221986	0.920580	0.614437	0.180362	0.772085	0.570549	0.110983	0.586485	0.526660	1.387367	4.283041	3.905502	0.000000	0.000000	9.202446	-5.021689	27.499045	0.882740	-28.669029	109.932006	17.207171	31.192282	4.357163	-8.239765	25.059947	-13.346047	13.472944	149.776980	88.479135	2.635097	-9.333771
1.745455	-0.609397	8.027556	97.256534	0.146366	0.881121	0.516604	-4.892340	1.436538	-8.764714	10.280788	0.179434	31.941372	0.087117	0.000000	-3.692567	-1.880470	5.737401	12.601018	0.219929	32.443053	7.515269	0.000000	0.189334	0.344812	0.788074	0.351612	0.458600	0.837329	0.311057	0.838375	0.837329	0.216390	0.838375	0.689565	0.175816	0.703140	0.640310	0.108185	0.534113	0.591056	1.352394	3.900578	4.383032	0.000000	0.000000	8.855148	-4.657784	27.269843	0.818848	-28.282389	110.246379	16.810873	32.053550	4.582919	-8.266742	25.066501	-13.593598	13.767394	149.785567	88.544847	2.040576	-9.174834
1.763636	-0.847361	8.148141	97.083875	0.146750	0.881457	0.516697	-4.938404	1.192364	-8.363962	10.628830	0.185508	31.919207	-0.213414	0.000000	-3.760162	-1.663931	5.207936	12.812484	0.223620	32.500701	7.835467	0.000000	0.185352	0.315422	0.864853	0.344218	0.419511	0.918906	0.304515	0.766917	0.918906	0.211839	0.766917	0.756746	0.172118	0.643209	0.702693	0.105910	0.488589	0.648640	1.323953	3.568117	4.810053	0.000000	0.000000	8.534025	-4.312903	27.157814	0.688506	-27.965474	109.969884	16.444434	32.797545	4.994601	-8.142267	24.970861	-13.890933	13.988785	149.790940	88.606305	1.366009	-9.108423
1.781818	-1.092817	8.239904	96.877276	0.147090	0.881783	0.516722	-4.956074	0.928676	-7.973981	10.977036	0.191585	31.929739	-0.453605	0.000000	-3.830920	-1.417471	4.768923	12.961623	0.226223	32.515082	7.984187	0.000000	0.182003	0.287425	0.936872	0.337997	0.382275	0.995427	0.299012	0.698845	0.995427	0.208011	0.698845	0.819763	0.169008	0.586117	0.761209	0.103996	0.445221	0.702654	1.300027	3.251406	5.210603	0.000000	0.000000	8.281548	-4.008967	27.081310	0.600443	-27.666612	109.898388	16.072317	32.638652	5.569624	-7.994674	24.804181	-14.216856	14.154670	149.796790	88.655577	0.696692	-9.117940
1.800000	-1.320067	8.311309	96.653513	0.147342	0.882102	0.516689	-4.952000	0.672559	-7.626133	11.321828	0.197603	31.961097	-0.621652	0.000000	-3.899776	-1.175229	4.368985	13.065195	0.228031	32.532617	8.073489	0.000000	0.179110	0.263422	1.002769	0.332625	0.350352	1.065442	0.294260	0.640485	1.065442	0.204705	0.640485	0.877423	0.166322	0.537171	0.814750	0.102344	0.408041	0.752077	1.279366	2.979885	5.577100	0.000000	0.000000	8.051353	-3.745877	26.943817	0.480748	-27.430355	109.506664	15.737809	32.139012	6.279801	-7.753650	24.575987	-14.537255	14.288501	149.801837	88.686464	0.072026	-9.210633
1.818182	-1.534591	8.349310	96.448092	0.147449	0.882389	0.516638	-4.923090	0.419063	-7.352169	11.634821	0.203066	31.992084	-0.720635	0.000000	-3.947283	-0.930387	4.045485	13.120224	0.228991	32.545294	8.101879	0.000000	0.176939	0.242574	1.063157	0.328594	0.322623	1.129605	0.290693	0.589793	1.129605	0.202224	0.589793	0.930263	0.164306	0.494656	0.863815	0.101103	0.375746	0.797368	1.263858	2.744040	5.912962	0.000000	0.000000	7.912193	-3.551327	26.795172	0.333694	-27.269035	108.799840	15.490364	31.238366	7.109890	-7.329034	24.324992	-14.833831	14.433914	149.806554	88.708188	-0.543066	-9.372641
1.836364	-1.734680	8.352580	96.228598	0.147485	0.882600	0.516571	-4.855942	0.167355	-7.109823	11.929330	0.208206	32.029564	-0.765708	0.000000	-3.969124	-0.690730	3.698052	13.137207	0.229288	32.578014	8.162725	0.000000	0.175771	0.223347	1.133611	0.326424	0.297051	1.204461	0.288774	0.543045	1.204461	0.200888	0.543045	0.991909	0.163221	0.455449	0.921059	0.100435	0.345964	0.850208	1.255512	2.526543	6.304802	0.000000	0.000000	7.888010	-3.398051	26.531025	0.129098	-27.148870	107.944742	15.288148	29.946432	7.966049	-6.926126	24.111281	-15.083249	14.632501	149.809775	88.713695	-1.146533	-9.484639
1.854545	-1.911130	8.323345	96.020568	0.147399	0.882744	0.516480	-4.763962	-0.073838	-6.952643	12.181366	0.212605	32.061307	-0.709189	0.000000	-3.971363	-0.457553	3.464774	13.102183	0.228676	32.589518	8.110815	0.000000	0.175787	0.207902	1.208975	0.326453	0.276510	1.284536	0.288800	0.505493	1.284536	0.200906	0.505493	1.057853	0.163235	0.423954	0.982292	0.100444	0.322040	0.906731	1.255626	2.351831	6.723955	0.000000	0.000000	7.998027	-3.326504	26.262394	-0.126794	-27.099044	106.858049	15.175755	28.458243	8.830276	-6.519616	23.918552	-15.257047	14.818148	149.811306	88.701237	-1.574330	-9.590037
1.872727	-2.055311	8.272540	95.830165	0.147172	0.882821	0.516398	-4.653083	-0.296382	-6.893472	12.394414	0.216323	32.081250	-0.541194	0.000000	-3.952464	-0.244161	3.321534	13.041921	0.227624	32.592888	7.987510	0.000000	0.175302	0.197141	1.290495	0.325554	0.262198	1.371151	0.288004	0.479329	1.371151	0.200353	0.479329	1.129183	0.162786	0.402010	1.048527	0.100168	0.305372	0.967871	1.252167	2.230100	7.177345	0.000000	0.000000	8.229170	-3.330032	26.023340	-0.426495	-27.112025	105.613828	15.128971	26.932280	9.646487	-6.138764	23.779598	-15.337498	15.022310	149.809754	88.670653	-1.850183	-9.653079
1.890909	-2.165092	8.198193	95.657776	0.146858	0.882825	0.516336	-4.522469	-0.484613	-6.796408	12.557821	0.219175	32.063341	-0.430872	0.000000	-3.905778	-0.065523	3.173931	12.968288	0.226339	32.587253	7.915271	0.000000	0.175376	0.190775	1.371082	0.325691	0.253731	1.456775	0.288125	0.463851	1.456775	0.200437	0.463851	1.199697	0.162854	0.389029	1.114004	0.100210	0.295511	1.028311	1.252694	2.158090	7.625547	0.000000	0.000000	8.564082	-3.369703	25.879069	-0.729332	-27.177741	104.275747	15.141386	25.629129	10.352931	-5.842663	23.685112	-15.366752	15.235871	149.809419	88.623400	-2.042598	-9.701451
1.909091	-2.249026	8.105282	95.509136	0.146484	0.882766	0.516313	-4.379424	-0.652601	-6.753526	12.673974	0.221203	32.035699	-0.252291	0.000000	-3.833883	0.085060	3.056234	12.892841	0.225023	32.568416	7.872394	0.000000	0.175528	0.187212	1.449830	0.325973	0.248992	1.540445	0.288374	0.455187	1.540445	0.200611	0.455187	1.268602	0.162995	0.381762	1.177987	0.100297	0.289991	1.087373	1.253777	2.117778	8.063521	0.000000	0.000000	8.961002	-3.446119	25.782224	-1.048711	-27.271600	102.743746	15.183521	24.509182	10.989710	-5.522271	23.645074	-15.335215	15.415730	149.808074	88.562017	-2.036827	-9.673428
1.927273	-2.324912	8.003725	95.400598	0.146100	0.882669	0.516338	-4.240727	-0.809367	-6.738249	12.741634	0.222383	32.003218	-0.055249	0.000000	-3.751236	0.222602	3.009425	12.811005	0.223594	32.520984	7.828833	0.000000	0.175464	0.183488	1.514158	0.325854	0.244039	1.608793	0.288269	0.446133	1.608793	0.200537	0.446133	1.324889	0.162936	0.374169	1.230254	0.100260	0.284223	1.135619	1.253319	2.075656	8.421295	0.000000	0.000000	9.372296	-3.553106	25.693622	-1.318034	-27.463160	99.332483	15.550448	25.499034	11.191971	-5.190885	23.648329	-15.277284	15.530861	149.805418	88.497729	-1.893482	-9.569725
1.945455	-2.386620	7.892632	95.328552	0.145729	0.882535	0.516366	-4.107804	-0.942907	-6.721814	12.763847	0.222771	31.963432	0.111869	0.000000	-3.658541	0.336588	3.015544	12.726039	0.222111	32.465472	7.813296	0.000000	0.175168	0.180154	1.570163	0.325305	0.239605	1.668298	0.287784	0.438026	1.668298	0.200200	0.438026	1.373892	0.162661	0.367370	1.275757	0.100091	0.279059	1.177622	1.251208	2.037938	8.732774	0.000000	0.000000	9.813394	-3.719330	25.567936	-1.543306	-27.523488	97.241407	15.588181	26.185414	11.385779	-5.122610	23.711035	-15.173829	15.605919	149.800205	88.432844	-1.636635	-9.332033
1.963636	-2.442450	7.777879	95.291049	0.145413	0.882379	0.516379	-3.986801	-1.064010	-6.742863	12.755081	0.222618	31.934641	0.301797	0.000000	-3.560963	0.433742	3.074136	12.647090	0.220733	32.414010	7.814492	0.000000	0.175046	0.175481	1.618464	0.325079	0.233389	1.719618	0.287584	0.426664	1.719618	0.200061	0.426664	1.416156	0.162548	0.357840	1.315002	0.100022	0.271820	1.213848	1.250339	1.985073	9.001410	0.000000	0.000000	10.255136	-3.960258	25.314185	-1.733643	-27.434827	96.343687	15.298011	26.719173	11.538672	-5.341019	23.838419	-15.036549	15.638867	149.792913	88.370886	-1.293976	-8.893894
1.981818	-2.490532	7.666276	95.275696	0.145177	0.882213	0.516359	-3.882401	-1.170054	-6.802422	12.723726	0.222071	31.915820	0.514430	0.000000	-3.471018	0.514774	3.209640	12.568240	0.219357	32.356103	7.771368	0.000000	0.174809	0.169476	1.662960	0.324637	0.225402	1.766895	0.287193	0.412063	1.766895	0.199789	0.412063	1.455090	0.162327	0.345595	1.351155	0.099886	0.262518	1.247220	1.248642	1.917141	9.248887	0.000000	0.000000	10.693487	-4.269663	24.890935	-1.900063	-27.200094	96.614341	14.698459	27.082301	11.618478	-5.872796	24.030071	-14.888022	15.649589	149.785177	88.318476	-0.922599	-8.258867
2.000000	-2.516940	7.569290	95.290706	0.144999	0.882072	0.516284	-3.813606	-1.237614	-6.871903	12.655455	0.220879	31.882352	0.677223	0.000000	-3.399205	0.559282	3.396647	12.492278	0.218031	32.292923	7.728633	0.000000	0.173521	0.164712	1.700733	0.322246	0.219066	1.807029	0.285077	0.400480	1.807029	0.198317	0.400480	1.488141	0.161131	0.335880	1.381846	0.099150	0.255138	1.275550	1.239442	1.863251	9.458967	0.000000	0.000000	11.129115	-4.644977	24.377987	-2.033905	-26.844407	98.296552	13.820466	27.019398	11.610039	-6.660662	24.241702	-14.754463	15.603422	149.778984	88.282183	-0.495501	-7.520306
2.018182	-2.559218	7.465737	95.297658	0.145039	0.881959	0.516113	-3.741494	-1.318604	-7.020870	12.593949	0.219806	31.898116	0.937733	0.000000	-3.335702	0.599527	3.506278	12.412588	0.216641	32.200051	7.770526	0.000000	0.174407	0.155294	1.746534	0.323891	0.206541	1.855692	0.286533	0.377582	1.855692	0.199330	0.377582	1.528217	0.161954	0.316675	1.419059	0.099656	0.240550	1.309900	1.245773	1.756716	9.713697	0.000000	0.000000	11.561830	-5.065599	23.756660	-1.903832	-26.073829	104.835628	11.810581	23.022688	12.015175	-8.479944	24.471259	-14.695074	15.503821	149.775928	88.265068	-0.078969	-6.656809
2.036364	-2.560261	7.374774	95.275223	0.145131	0.881883	0.515850	-3.684235	-1.353041	-7.150453	12.522200	0.218554	31.929901	1.182350	0.000000	-3.299953	0.595711	3.626984	12.332252	0.215238	32.072646	7.753139	0.000000	0.174989	0.152995	1.787380	0.324972	0.203483	1.899091	0.287489	0.371991	1.899091	0.199995	0.371991	1.563957	0.162495	0.311986	1.452246	0.099989	0.236989	1.340535	1.249928	1.730705	9.940871	0.000000	0.000000	12.035912	-5.570101	23.240316	-1.945409	-25.430409	109.355822	10.194488	20.763269	12.183023	-10.087186	24.610884	-14.692079	15.258815	149.778953	88.271786	0.317426	-5.798171
2.054545	-2.514491	7.287852	95.218406	0.145248	0.881846	0.515481	-3.628517	-1.339803	-7.266682	12.445017	0.217207	31.992542	1.428445	0.000000	-3.281907	0.542017	3.716817	12.256782	0.213921	31.912931	7.735286	0.000000	0.176205	0.160138	1.817489	0.327230	0.212984	1.931082	0.289487	0.389360	1.931082	0.201384	0.389360	1.590303	0.163624	0.326554	1.476710	0.100683	0.248054	1.363117	1.258612	1.811516	10.108330	0.000000	0.000000	12.571321	-6.165618	22.943131	-2.199278	-24.956031	111.552199	9.085625	20.286598	12.161863	-11.246151	24.601252	-14.752658	14.830742	149.789739	88.307740	0.664770	-5.018454
2.072727	-2.422057	7.200196	95.141390	0.145369	0.881864	0.515032	-3.571238	-1.274539	-7.354319	12.352016	0.215583	32.072083	1.636451	0.000000	-3.275373	0.446198	3.877477	12.179774	0.212577	31.689594	7.602463	0.000000	0.179506	0.176590	1.815884	0.333361	0.234864	1.929377	0.294911	0.429360	1.929377	0.205158	0.429360	1.588899	0.166690	0.360102	1.475406	0.102570	0.273537	1.361913	1.282196	1.997617	10.099403	0.000000	0.000000	13.116391	-6.771513	22.952073	-2.439313	-24.647897	112.393631	8.345814	21.065058	11.883755	-12.049949	24.348852	-14.883769	14.117586	149.820127	88.342993	1.083742	-4.393846
